<svg width="128" height="128" viewBox="0 0 128 128" fill="none" xmlns="http://www.w3.org/2000/svg">
<g clip-path="url(#clip0_183_228)">
<path d="M78.6895 115.443C79.7757 131.792 80.4325 147.615 81.5188 163.964" stroke="#1D1D1B" stroke-width="8" stroke-linecap="round" stroke-linejoin="round"/>
<path d="M93.0742 40.5781C93.2041 37.9069 93.763 33.1444 96.3488 28.0009C97.3957 25.922 100.351 20.2277 106.877 16.3472C112.525 12.9886 117.905 12.736 120.447 12.794C120.805 14.5913 121.191 17.718 120.298 21.3375C119.129 26.0793 116.433 28.9575 114.351 31.1856C113.481 32.1132 110.084 35.6209 104.472 38.0726C99.8988 40.0687 95.782 40.5201 93.0742 40.5781Z" stroke="#1D1D1B" stroke-width="8" stroke-linecap="round" stroke-linejoin="round"/>
<path d="M64.8023 118.956C62.9132 119.011 58.0486 119.108 53.4792 116.734C45.9186 112.806 44.3916 104.839 44.301 104.266C42.9039 95.4838 50.5392 92.7994 52.4087 79.5675C52.9085 76.0125 53.2352 70.9167 50.5982 65.2785C46.8593 57.2772 40.0701 54.7483 40.7549 48.6229C41.0737 45.7865 42.6126 45.6552 43.5611 41.2849C44.549 36.7419 43.691 33.1662 43.1597 30.6994C42.1639 26.0735 41.058 19.4852 40.3456 10.2367C40.1567 7.6283 42.2899 5.32049 45.1708 4.94392C48.1463 4.55353 51.0312 6.34657 51.6018 8.99985C52.4047 16.5279 53.2116 24.0524 54.0145 31.5804C54.6442 32.0606 55.6793 32.7723 57.104 33.4045C57.8046 33.7155 63.661 36.2029 69.8794 33.8951C70.8634 33.5289 72.3786 32.8518 73.9726 31.5804C74.7755 24.0524 75.5823 16.5279 76.3852 8.99985C76.9559 6.34311 79.8408 4.55353 82.8162 4.94392C85.6933 5.32049 87.8264 7.6283 87.6415 10.2367C86.9291 19.4852 85.8231 26.0735 84.8274 30.6994C84.2961 33.1662 83.4381 36.7419 84.4259 41.2849C85.3745 45.6552 86.9173 45.7831 87.2321 48.6229C87.917 54.7483 81.1278 57.2772 77.3888 65.2785C74.7558 70.9167 75.0786 76.016 75.5784 79.5675C77.4479 92.7959 85.0793 95.4838 83.686 104.266C83.5955 104.836 82.033 112.841 74.5079 116.734C70.6272 118.741 66.6167 118.9 64.7945 118.956H64.8023Z" stroke="#1D1D1B" stroke-width="8" stroke-linecap="round" stroke-linejoin="round"/>
<path d="M49.6892 115.487C48.603 131.836 47.5677 147.615 46.4814 163.964" stroke="#1D1D1B" stroke-width="8" stroke-linecap="round" stroke-linejoin="round"/>
<path d="M34.926 40.5781C34.7961 37.9069 34.2372 33.1444 31.6515 28.0009C30.6045 25.922 27.6488 20.2277 21.1233 16.3472C15.4756 12.9886 10.0954 12.736 7.55291 12.794C7.19475 14.5913 6.80905 17.718 7.70246 21.3375C8.87138 26.0793 11.5674 28.9575 13.6494 31.1856C14.5192 32.1132 17.9157 35.6209 23.5281 38.0726C28.1014 40.0687 32.2182 40.5201 34.926 40.5781Z" stroke="#1D1D1B" stroke-width="8" stroke-linecap="round" stroke-linejoin="round"/>
<path d="M67.2871 98.3791C67.6886 95.973 69.5541 94.4531 71.2386 94.6436C72.9192 94.8341 73.9346 96.677 74.1865 98.0271C74.58 100.135 73.3914 102.475 71.1717 103.738" stroke="#1D1D1B" stroke-width="5" stroke-linecap="round" stroke-linejoin="round"/>
<path d="M60.7151 98.3791C60.3136 95.973 58.4481 94.4531 56.7636 94.6436C55.083 94.8341 54.0676 96.677 53.8157 98.0271C53.4222 100.135 54.6108 102.475 56.8305 103.738" stroke="#1D1D1B" stroke-width="5" stroke-linecap="round" stroke-linejoin="round"/>
<path d="M38.9452 73.6854C41.1645 73.6854 42.9635 71.403 42.9635 68.5875C42.9635 65.7719 41.1645 63.4895 38.9452 63.4895C36.7259 63.4895 34.9268 65.7719 34.9268 68.5875C34.9268 71.403 36.7259 73.6854 38.9452 73.6854Z" fill="#1D1D1B" stroke="#1D1D1B" stroke-width="4" stroke-linecap="round" stroke-linejoin="round"/>
<path d="M89.0565 73.6854C91.2758 73.6854 93.0749 71.403 93.0749 68.5875C93.0749 65.7719 91.2758 63.4895 89.0565 63.4895C86.8372 63.4895 85.0381 65.7719 85.0381 68.5875C85.0381 71.403 86.8372 73.6854 89.0565 73.6854Z" fill="#1D1D1B" stroke="#1D1D1B" stroke-width="4" stroke-linecap="round" stroke-linejoin="round"/>
</g>
<defs>
<clipPath id="clip0_183_228">
<rect width="128" height="128" fill="white"/>
</clipPath>
</defs>
</svg>
