<svg width="258" height="370" viewBox="0 0 258 370" fill="none" xmlns="http://www.w3.org/2000/svg">
<path d="M135.84 216.37C136.701 211.047 140.706 207.684 144.321 208.105C147.928 208.527 150.108 212.604 150.648 215.591C151.493 220.255 148.942 225.431 144.178 228.226" stroke="#1D1D1B" stroke-width="12" stroke-linecap="round" stroke-linejoin="round"/>
<path d="M160.314 254.123C162.646 290.293 164.056 325.3 166.387 361.47" stroke="#1D1D1B" stroke-width="12" stroke-linecap="round" stroke-linejoin="round"/>
<path d="M161.344 283.15C159.333 284.4 144.618 293.95 141.805 313.21C139.034 332.13 148.901 352.56 166.395 361.47" stroke="#1D1D1B" stroke-width="12" stroke-linecap="round" stroke-linejoin="round"/>
<path d="M97.8608 334.49C111.613 330.07 121.666 316.11 123.034 299.62C124.487 282.14 115.888 265.29 101.89 258.45" stroke="#1D1D1B" stroke-width="12" stroke-linecap="round" stroke-linejoin="round"/>
<path d="M191.188 88.491C191.467 82.5814 192.667 72.0449 198.217 60.6654C200.464 56.066 206.808 43.468 220.814 34.8831C232.936 27.4525 244.484 26.8936 249.941 27.0219C250.709 30.9983 251.537 37.9157 249.62 45.9235C247.111 56.4142 241.324 62.7819 236.856 67.7111C234.989 69.7635 227.699 77.5238 215.652 82.9479C205.836 87.364 197 88.3627 191.188 88.491Z" stroke="#1D1D1B" stroke-width="12" stroke-linecap="round" stroke-linejoin="round"/>
<path d="M130.51 261.893C126.456 262.016 116.014 262.23 106.207 256.979C89.9793 248.288 86.7017 230.663 86.5074 229.394C83.5085 209.964 99.8966 204.025 103.909 174.751C104.982 166.886 105.683 155.613 100.023 143.139C91.9982 125.437 77.4263 119.842 78.8962 106.29C79.5804 100.015 82.8834 99.7244 84.9192 90.0556C87.0396 80.0046 85.198 72.0938 84.0576 66.6364C81.9204 56.402 79.5466 41.8261 78.0176 21.3649C77.6122 15.5942 82.1907 10.4884 88.3743 9.65529C94.7606 8.79159 100.953 12.7585 102.177 18.6286C103.901 35.2834 105.632 51.9306 107.356 68.5855C108.707 69.6479 110.929 71.2224 113.987 72.6211C115.491 73.309 128.061 78.8122 141.408 73.7065C143.519 72.8963 146.772 71.3982 150.193 68.5855C151.916 51.9306 153.648 35.2834 155.371 18.6286C156.596 12.7508 162.788 8.79159 169.175 9.65529C175.35 10.4884 179.928 15.5942 179.531 21.3649C178.002 41.8261 175.628 56.402 173.491 66.6364C172.351 72.0938 170.509 80.0046 172.63 90.0556C174.665 99.7244 177.977 100.007 178.653 106.29C180.122 119.842 165.551 125.437 157.525 143.139C151.874 155.613 152.567 166.894 153.64 174.751C157.652 204.018 174.032 209.964 171.041 229.394C170.847 230.655 167.493 248.365 151.342 256.979C143.013 261.419 134.405 261.771 130.493 261.893H130.51Z" stroke="#1D1D1B" stroke-width="12" stroke-linecap="round" stroke-linejoin="round"/>
<path d="M121.735 216.37C120.873 211.047 116.869 207.684 113.253 208.105C109.646 208.527 107.467 212.604 106.926 215.591C106.081 220.255 108.632 225.431 113.397 228.226" stroke="#1D1D1B" stroke-width="12" stroke-linecap="round" stroke-linejoin="round"/>
<path d="M98.0725 254.22C95.741 290.39 93.519 325.3 91.1875 361.47" stroke="#1D1D1B" stroke-width="12" stroke-linecap="round" stroke-linejoin="round"/>
<path d="M66.3857 88.491C66.1069 82.5814 64.9074 72.0449 59.3574 60.6654C57.1103 56.066 50.7663 43.468 36.7603 34.8831C24.6382 27.4525 13.0905 26.8936 7.63339 27.0219C6.86467 30.9983 6.0368 37.9157 7.95438 45.9235C10.4633 56.4142 16.2498 62.7819 20.7185 67.7111C22.5854 69.7635 29.8756 77.5238 41.9217 82.9479C51.7377 87.364 60.5738 88.3627 66.3857 88.491Z" stroke="#1D1D1B" stroke-width="12" stroke-linecap="round" stroke-linejoin="round"/>
<path d="M75.0106 161.737C79.774 161.737 83.6355 156.688 83.6355 150.459C83.6355 144.23 79.774 139.18 75.0106 139.18C70.2472 139.18 66.3857 144.23 66.3857 150.459C66.3857 156.688 70.2472 161.737 75.0106 161.737Z" fill="#1D1D1B" stroke="#1D1D1B" stroke-width="2.35" stroke-linecap="round" stroke-linejoin="round"/>
<path d="M182.564 161.737C187.327 161.737 191.189 156.688 191.189 150.459C191.189 144.23 187.327 139.18 182.564 139.18C177.8 139.18 173.939 144.23 173.939 150.459C173.939 156.688 177.8 161.737 182.564 161.737Z" fill="#1D1D1B" stroke="#1D1D1B" stroke-width="2.35" stroke-linecap="round" stroke-linejoin="round"/>
</svg>
