<svg width="48" height="57" viewBox="0 0 48 57" fill="none" xmlns="http://www.w3.org/2000/svg">
<line x1="23.9941" y1="1" x2="23.9941" y2="30.848" stroke="#394D3F" stroke-width="2" stroke-linecap="round"/>
<line x1="1" y1="-1" x2="6.09052" y2="-1" transform="matrix(0.739186 -0.673501 0.560505 0.828151 23.8838 32.3018)" stroke="#394D3F" stroke-width="2" stroke-linecap="round"/>
<line x1="1" y1="-1" x2="6.09052" y2="-1" transform="matrix(-0.739186 -0.673501 -0.560505 0.828151 24.1162 32.3018)" stroke="#394D3F" stroke-width="2" stroke-linecap="round"/>
<path d="M9.14205 44.8806L7.4098 45.1874C7.33736 44.9658 7.2223 44.7549 7.06463 44.5546C6.91122 44.3543 6.70242 44.1903 6.43821 44.0624C6.17401 43.9346 5.84375 43.8706 5.44744 43.8706C4.90625 43.8706 4.45455 43.9921 4.09233 44.235C3.73011 44.4736 3.54901 44.7826 3.54901 45.1618C3.54901 45.49 3.67045 45.7542 3.91335 45.9545C4.15625 46.1547 4.5483 46.3188 5.08949 46.4466L6.64915 46.8046C7.55256 47.0134 8.22585 47.3351 8.66903 47.7698C9.11222 48.2045 9.33381 48.7691 9.33381 49.4637C9.33381 50.0518 9.16335 50.5759 8.82244 51.0361C8.4858 51.4921 8.01492 51.8501 7.4098 52.11C6.80895 52.3699 6.11222 52.4999 5.3196 52.4999C4.22017 52.4999 3.32315 52.2655 2.62855 51.7968C1.93395 51.3238 1.50781 50.6526 1.35014 49.7833L3.19744 49.502C3.3125 49.9836 3.54901 50.3479 3.90696 50.5951C4.26491 50.838 4.73153 50.9594 5.30682 50.9594C5.93324 50.9594 6.43395 50.8295 6.80895 50.5695C7.18395 50.3053 7.37145 49.9836 7.37145 49.6043C7.37145 49.2975 7.25639 49.0397 7.02628 48.8309C6.80043 48.6221 6.45312 48.4644 5.98438 48.3579L4.32244 47.9935C3.40625 47.7847 2.72869 47.4523 2.28977 46.9964C1.85511 46.5404 1.63778 45.963 1.63778 45.2641C1.63778 44.6846 1.79972 44.1775 2.12358 43.7428C2.44744 43.3081 2.89489 42.9694 3.46591 42.7265C4.03693 42.4793 4.69105 42.3557 5.42827 42.3557C6.48935 42.3557 7.32457 42.5858 7.93395 43.0461C8.54332 43.502 8.94602 44.1135 9.14205 44.8806ZM15.5708 52.4999C14.6206 52.4999 13.8024 52.2847 13.1163 51.8543C12.4345 51.4197 11.9103 50.8209 11.5439 50.0581C11.1774 49.2954 10.9941 48.4218 10.9941 47.4374C10.9941 46.4403 11.1816 45.5603 11.5566 44.7975C11.9316 44.0305 12.46 43.4317 13.1419 43.0013C13.8237 42.5709 14.627 42.3557 15.5517 42.3557C16.2974 42.3557 16.9622 42.4942 17.546 42.7712C18.1298 43.0439 18.6007 43.4275 18.9586 43.9218C19.3208 44.4161 19.536 44.9935 19.6042 45.654H17.7441C17.6419 45.1938 17.4075 44.7975 17.041 44.4651C16.6788 44.1327 16.193 43.9665 15.5836 43.9665C15.051 43.9665 14.5843 44.1072 14.1838 44.3884C13.7875 44.6654 13.4785 45.0617 13.2569 45.5773C13.0353 46.0887 12.9245 46.6938 12.9245 47.3927C12.9245 48.1086 13.0332 48.7265 13.2505 49.2464C13.4679 49.7662 13.7747 50.1689 14.171 50.4545C14.5716 50.74 15.0424 50.8827 15.5836 50.8827C15.9458 50.8827 16.274 50.8167 16.568 50.6846C16.8663 50.5482 17.1156 50.3543 17.3159 50.1029C17.5204 49.8515 17.6632 49.5489 17.7441 49.1952H19.6042C19.536 49.8302 19.3294 50.3969 18.9842 50.8955C18.639 51.3941 18.1767 51.7861 17.5971 52.0716C17.0218 52.3572 16.3464 52.4999 15.5708 52.4999ZM21.6481 52.3018V42.4836H23.4954V44.0432H23.5977C23.7766 43.5148 24.092 43.0993 24.5437 42.7968C24.9996 42.49 25.5153 42.3366 26.0906 42.3366C26.2099 42.3366 26.3505 42.3408 26.5124 42.3493C26.6786 42.3579 26.8086 42.3685 26.9023 42.3813V44.2094C26.8256 44.1881 26.6893 44.1647 26.4933 44.1391C26.2972 44.1093 26.1012 44.0944 25.9052 44.0944C25.4535 44.0944 25.0508 44.1903 24.6971 44.382C24.3477 44.5695 24.0707 44.8316 23.8661 45.1682C23.6616 45.5006 23.5593 45.8799 23.5593 46.306V52.3018H21.6481ZM32.3404 52.4999C31.4199 52.4999 30.6167 52.289 29.9306 51.8671C29.2445 51.4452 28.7118 50.855 28.3326 50.0965C27.9533 49.338 27.7637 48.4516 27.7637 47.4374C27.7637 46.4189 27.9533 45.5283 28.3326 44.7655C28.7118 44.0028 29.2445 43.4104 29.9306 42.9885C30.6167 42.5667 31.4199 42.3557 32.3404 42.3557C33.2608 42.3557 34.0641 42.5667 34.7502 42.9885C35.4363 43.4104 35.9689 44.0028 36.3482 44.7655C36.7275 45.5283 36.9171 46.4189 36.9171 47.4374C36.9171 48.4516 36.7275 49.338 36.3482 50.0965C35.9689 50.855 35.4363 51.4452 34.7502 51.8671C34.0641 52.289 33.2608 52.4999 32.3404 52.4999ZM32.3468 50.8955C32.9434 50.8955 33.4377 50.7378 33.8297 50.4225C34.2218 50.1072 34.5115 49.6874 34.699 49.1633C34.8908 48.6391 34.9867 48.0617 34.9867 47.431C34.9867 46.8046 34.8908 46.2293 34.699 45.7052C34.5115 45.1768 34.2218 44.7528 33.8297 44.4331C33.4377 44.1135 32.9434 43.9537 32.3468 43.9537C31.7459 43.9537 31.2473 44.1135 30.851 44.4331C30.459 44.7528 30.1671 45.1768 29.9753 45.7052C29.7878 46.2293 29.6941 46.8046 29.6941 47.431C29.6941 48.0617 29.7878 48.6391 29.9753 49.1633C30.1671 49.6874 30.459 50.1072 30.851 50.4225C31.2473 50.7378 31.7459 50.8955 32.3468 50.8955ZM40.9616 39.2108V52.3018H39.0504V39.2108H40.9616ZM45.4441 39.2108V52.3018H43.5328V39.2108H45.4441Z" fill="#394D3F"/>
</svg>
