<svg width="142" height="110" viewBox="0 0 142 110" fill="none" xmlns="http://www.w3.org/2000/svg">
<path d="M1.75098 1.73621C84.6 4.62375 169.969 26.956 76.7063 107.561" stroke="#394D3F" stroke-width="3" stroke-linecap="round"/>
<line x1="76.7383" y1="107.569" x2="88.3984" y2="107.569" stroke="#394D3F" stroke-width="3" stroke-linecap="round"/>
<path d="M76.7383 107.57L77.6955 97.5463" stroke="#394D3F" stroke-width="3" stroke-linecap="round"/>
<path d="M109.95 92.529L109.212 94.1262C108.989 94.0591 108.75 94.0331 108.495 94.0481C108.243 94.0597 107.99 94.1374 107.734 94.2812C107.478 94.4251 107.237 94.6597 107.01 94.985C106.701 95.4293 106.543 95.8695 106.536 96.3055C106.525 96.7391 106.675 97.0642 106.986 97.2808C107.256 97.4682 107.542 97.5194 107.845 97.4344C108.148 97.3494 108.507 97.1213 108.921 96.75L110.105 95.6741C110.793 95.0518 111.441 94.6829 112.051 94.5673C112.661 94.4517 113.251 94.5923 113.821 94.989C114.304 95.3248 114.637 95.7641 114.82 96.3067C115.002 96.8435 115.027 97.4345 114.895 98.0796C114.765 98.7213 114.474 99.3675 114.021 100.018C113.393 100.921 112.689 101.523 111.907 101.826C111.122 102.126 110.328 102.092 109.524 101.725L110.348 100.048C110.809 100.229 111.243 100.243 111.651 100.09C112.055 99.9348 112.421 99.6211 112.749 99.1489C113.107 98.6346 113.286 98.1494 113.287 97.6931C113.284 97.2344 113.127 96.8967 112.816 96.6801C112.564 96.5049 112.287 96.4521 111.984 96.5218C111.684 96.5879 111.356 96.783 111.001 97.1069L109.752 98.2631C109.058 98.8959 108.398 99.2623 107.773 99.3622C107.15 99.4586 106.552 99.3072 105.979 98.9081C105.503 98.5771 105.179 98.1546 105.007 97.6405C104.835 97.1264 104.813 96.5657 104.94 95.9582C105.063 95.3483 105.335 94.7408 105.756 94.1356C106.362 93.2646 107.028 92.7104 107.754 92.473C108.476 92.2332 109.208 92.2518 109.95 92.529ZM119.876 91.6031C119.333 92.3831 118.689 92.9319 117.944 93.2493C117.198 93.5607 116.407 93.6491 115.571 93.5143C114.736 93.3795 113.914 93.031 113.106 92.4688C112.288 91.8993 111.672 91.2429 111.26 90.4994C110.845 89.7535 110.655 88.9778 110.691 88.1724C110.727 87.3669 111.009 86.5846 111.537 85.8255C111.963 85.2133 112.457 84.7467 113.017 84.4257C113.575 84.1022 114.158 83.9347 114.769 83.9231C115.381 83.9081 115.978 84.0612 116.559 84.3825L115.497 85.9094C115.061 85.7305 114.602 85.6966 114.12 85.8076C113.64 85.9151 113.226 86.219 112.878 86.7192C112.574 87.1564 112.423 87.6198 112.425 88.1092C112.426 88.5927 112.575 89.0727 112.871 89.549C113.165 90.023 113.598 90.4595 114.172 90.8586C114.759 91.2675 115.329 91.5312 115.88 91.6497C116.431 91.7682 116.936 91.7463 117.397 91.584C117.86 91.4183 118.246 91.1133 118.555 90.669C118.762 90.3717 118.895 90.0646 118.955 89.7478C119.013 89.425 118.996 89.1097 118.904 88.8017C118.815 88.4902 118.648 88.2002 118.404 87.9317L119.466 86.4048C119.949 86.8234 120.296 87.3167 120.508 87.8848C120.72 88.4529 120.778 89.0563 120.681 89.6951C120.587 90.3304 120.318 90.9664 119.876 91.6031ZM123.184 86.5012L115.124 80.8941L116.179 79.3776L117.459 80.2684L117.518 80.1844C117.186 79.7357 117.025 79.2396 117.035 78.696C117.043 78.1465 117.212 77.6356 117.54 77.1634C117.609 77.0654 117.692 76.9524 117.792 76.8243C117.894 76.6928 117.977 76.5922 118.041 76.5225L119.541 77.5666C119.48 77.6174 119.383 77.7159 119.25 77.8622C119.114 78.0061 118.989 78.1585 118.877 78.3194C118.62 78.6902 118.468 79.0755 118.424 79.4754C118.378 79.8693 118.435 80.2463 118.595 80.6065C118.751 80.9642 119.003 81.2648 119.353 81.5082L124.275 84.9323L123.184 86.5012ZM129.453 77.8372C128.927 78.5928 128.295 79.1318 127.557 79.454C126.819 79.7763 126.03 79.8765 125.191 79.7546C124.352 79.6327 123.516 79.2822 122.683 78.703C121.847 78.1214 121.224 77.4571 120.815 76.7101C120.405 75.9632 120.223 75.1876 120.269 74.3835C120.314 73.5794 120.6 72.7995 121.125 72.0439C121.651 71.2884 122.283 70.7494 123.021 70.4272C123.759 70.1049 124.55 70.0059 125.392 70.1302C126.235 70.2545 127.075 70.6075 127.911 71.1891C128.743 71.7683 129.362 72.4302 129.769 73.1747C130.175 73.9192 130.355 74.6936 130.309 75.4977C130.264 76.3018 129.978 77.0817 129.453 77.8372ZM128.139 76.9157C128.48 76.426 128.633 75.9302 128.598 75.4283C128.563 74.9263 128.384 74.4488 128.061 73.9955C127.74 73.5388 127.321 73.1303 126.803 72.7701C126.289 72.4124 125.762 72.1625 125.222 72.0206C124.681 71.8727 124.168 71.8685 123.681 72.0078C123.195 72.1471 122.782 72.4616 122.441 72.9513C122.098 73.4445 121.944 73.9451 121.98 74.4529C122.019 74.9573 122.2 75.439 122.524 75.8982C122.847 76.3515 123.266 76.757 123.78 77.1147C124.298 77.4749 124.826 77.7277 125.363 77.8731C125.903 78.0151 126.414 78.0152 126.897 77.8734C127.382 77.7282 127.796 77.409 128.139 76.9157ZM123.467 63.1708L134.213 70.647L133.122 72.2159L122.376 64.7397L123.467 63.1708ZM126.027 59.4913L136.773 66.9675L135.682 68.5364L124.936 61.0602L126.027 59.4913Z" fill="#394D3F"/>
</svg>
